<?xml version="1.0" ?><svg fill="white" width="150%" height="150%" viewBox="0 0 24 24" xmlns="http://www.w3.org/2000/svg"><title/><g id="target"><path d="M12,0A12,12,0,1,0,24,12,12,12,0,0,0,12,0Zm0,22A10,10,0,1,1,22,12,10,10,0,0,1,12,22Z"/><path d="M20,11H18.92A7,7,0,0,0,13,5.08V4a1,1,0,0,0-2,0V5.08A7,7,0,0,0,5.08,11H4a1,1,0,0,0,0,2H5.08A7,7,0,0,0,11,18.92V20a1,1,0,0,0,2,0V18.92A7,7,0,0,0,18.92,13H20A1,1,0,0,0,20,11Zm-7,5.9V16a1,1,0,0,0-2,0v.9A5,5,0,0,1,7.1,13H8a1,1,0,0,0,0-2H7.1A5,5,0,0,1,11,7.1V8a1,1,0,0,0,2,0V7.1A5,5,0,0,1,16.9,11H16a1,1,0,0,0,0,2h.9A5,5,0,0,1,13,16.9Z"/>
</g></svg>